<?xml version="1.0" standalone="no"?>
<!DOCTYPE svg PUBLIC "-//W3C//DTD SVG 20010904//EN"
 "http://www.w3.org/TR/2001/REC-SVG-20010904/DTD/svg10.dtd">
<svg id="mask" version="1.0" xmlns="http://www.w3.org/2000/svg"
 width="512.000000pt" height="512.000000pt" viewBox="0 0 512.000000 512.000000"
 preserveAspectRatio="xMidYMid meet">

<g transform="translate(0.000000,512.000000) scale(0.100000,-0.100000)"
fill="#fff" stroke="#fff" stroke-width="6px">
<path d="M2490 5056 c-30 -18 -80 -47 -111 -66 l-56 -33 -6 -71 c-11 -146 -39
-473 -72 -856 -19 -217 -41 -483 -50 -590 -9 -107 -22 -255 -29 -327 l-12
-133 1031 0 1031 0 28 313 c20 232 65 760 66 784 0 5 -482 283 -491 283 -3 0
-9 -46 -13 -102 -4 -57 -18 -224 -31 -373 -27 -304 -55 -641 -55 -667 0 -16
-12 -18 -113 -18 l-113 0 3 33 c13 141 66 772 84 985 12 149 18 267 13 272 -5
4 -63 39 -129 78 -240 139 -380 219 -401 230 -21 11 -21 9 -38 -201 -10 -117
-29 -340 -42 -497 -14 -157 -34 -393 -44 -525 -11 -132 -23 -270 -26 -307 l-7
-68 -108 0 -109 0 5 43 c6 52 60 672 75 862 6 77 24 286 41 465 16 179 29 332
29 342 0 10 -31 34 -82 64 -46 26 -108 62 -138 81 -31 18 -60 33 -65 33 -6 0
-35 -15 -65 -34z"/>
<path d="M360 3505 l0 -115 423 0 423 0 -9 -102 c-16 -205 -46 -499 -52 -508
-4 -6 -157 -10 -396 -10 l-389 0 0 -105 0 -105 386 0 386 0 -7 -82 c-20 -249
-66 -722 -70 -727 -3 -2 -160 -16 -350 -30 l-345 -26 0 -117 0 -118 43 5 c23
3 155 12 292 20 138 9 403 27 590 40 187 14 402 28 478 31 112 6 140 10 146
23 5 9 11 63 15 120 l7 103 -120 -7 c-67 -4 -121 -3 -121 1 -1 19 62 721 66
742 4 21 8 22 109 22 121 0 110 -12 120 128 l6 82 -101 0 c-83 0 -102 3 -107
16 -5 14 15 269 43 546 l6 57 106 3 107 3 7 55 c4 30 8 80 9 110 l3 55 -852 3
-852 2 0 -115z"/>
<path d="M2096 2853 c-3 -16 -8 -65 -12 -110 l-6 -83 220 -2 221 -3 -27 -65
-28 -65 -175 -3 -176 -2 -7 -68 c-3 -37 -15 -168 -26 -292 -11 -124 -34 -364
-50 -535 -16 -170 -36 -386 -45 -480 -8 -93 -26 -287 -40 -429 -36 -370 -47
-321 93 -402 64 -37 165 -96 224 -130 103 -60 108 -62 113 -41 2 12 12 108 20
212 9 105 27 300 40 435 13 135 31 324 40 420 8 96 28 315 45 485 16 171 35
375 42 455 l13 145 53 3 54 3 -6 -38 c-3 -21 -13 -117 -21 -213 -9 -96 -31
-339 -50 -540 -68 -726 -106 -1127 -115 -1240 -6 -63 -13 -135 -16 -160 -5
-42 -3 -46 24 -62 48 -29 78 -22 191 44 58 34 126 73 151 86 25 14 46 26 48
27 2 2 12 101 22 221 11 121 31 334 45 474 23 243 40 423 85 915 12 121 26
279 33 350 l12 130 39 3 39 3 -7 -93 c-4 -51 -22 -257 -41 -458 -118 -1239
-137 -1456 -133 -1474 3 -13 58 17 363 195 l60 35 8 85 c4 46 23 248 42 449
19 201 37 394 40 430 3 36 18 200 34 365 16 165 32 337 36 383 l7 82 49 0 c60
0 57 32 24 -326 -14 -148 -37 -390 -50 -539 -25 -267 -71 -755 -79 -827 -2
-21 -3 -38 -1 -38 5 0 470 268 488 282 20 14 29 85 67 528 11 129 27 300 35
380 19 179 65 706 65 737 l0 23 -530 0 c-291 0 -530 2 -530 5 0 3 13 35 29 70
l30 65 790 0 791 0 0 110 0 110 -1324 0 -1324 0 -6 -27z"/>
</g>
</svg>
