<?xml version="1.0" encoding="UTF-8" standalone="no"?>
<!-- Created with Inkscape (http://www.inkscape.org/) -->

<svg
   version="1.1"
   id="svg2"
   width="793.70135"
   height="793.70135"
   viewBox="0 0 793.70135 793.70135"
   sodipodi:docname="シンボルマーク.ai"
   xmlns:inkscape="http://www.inkscape.org/namespaces/inkscape"
   xmlns:sodipodi="http://sodipodi.sourceforge.net/DTD/sodipodi-0.dtd"
   xmlns="http://www.w3.org/2000/svg"
   xmlns:svg="http://www.w3.org/2000/svg">
  <defs
     id="defs6" />
  <sodipodi:namedview
     id="namedview4"
     pagecolor="#ffffff"
     bordercolor="#000000"
     borderopacity="0.25"
     inkscape:showpageshadow="2"
     inkscape:pageopacity="0.0"
     inkscape:pagecheckerboard="0"
     inkscape:deskcolor="#d1d1d1"
     showgrid="false" />
  <g
     id="g10"
     inkscape:groupmode="layer"
     inkscape:label="Page 1"
     transform="matrix(1.3333333,0,0,-1.3333333,0,793.70133)">
    <g
       id="g12"
       transform="translate(298.0563,340.7674)">
      <path
         d="m 0,0 h 12.369 105.159 26.678 27.45 l 9.663,114.291 -51.61,29.799 L 119.464,23.2 H 97.037 L 108.366,156.413 50.139,190.034 35.955,23.2 H 14.305 L 29.615,201.884 -0.056,219.016 -24.236,205.055 -41.759,0 Z"
         style="fill:#ad324d;fill-opacity:1;fill-rule:nonzero;stroke:#ad324d;stroke-width:0.99975;stroke-dasharray:none;stroke-opacity:1;paint-order:stroke fill markers"
         id="path14" />
    </g>
    <g
       id="g16"
       transform="translate(233.8746,220.144)">
      <path
         d="m 0,0 -25.128,-1.546 6.959,78.869 H 4.254 l 1.932,23.2 h -22.423 l 5.8,63.405 h 22.423 l 1.932,23.196 h -22.423 -64.95 -89.587 v -23.196 h 87.651 l -5.796,-63.405 h -81.855 v -23.2 h 79.919 l -7.346,-83.123 -72.573,-5.198 v -24.635 l 161.11,10.892 z"
         style="fill:#ad324d;fill-opacity:1;fill-rule:nonzero;stroke:#ad324d;stroke-width:0.99975;stroke-dasharray:none;stroke-opacity:1;paint-order:stroke fill markers"
         id="path18" />
    </g>
    <g
       id="g20"
       transform="translate(248.5657,308.2942)">
      <path
         d="M 0,0 H 45.623 L 39.436,-13.918 H 20.491 3.482 l -20.499,-220.854 47.724,-27.554 21.102,225.208 h 10.05 l -21.617,-230.713 9.192,-5.307 34.716,20.043 20.237,215.977 h 7.736 l -19.798,-211.257 44.96,25.958 17.365,185.299 h 10.051 l -16.788,-179.163 53.043,30.625 15.94,171.738 h -2.709 -47.554 -10.051 -42.527 -7.346 L 112.896,0 H 276.602 V 23.196 H 1.936 Z"
         style="fill:#ad324d;fill-opacity:1;fill-rule:nonzero;stroke:#ad324d;stroke-width:0.99975;stroke-dasharray:none;stroke-opacity:1;paint-order:stroke fill markers"
         id="path22" />
    </g>
  </g>
</svg>
